<!DOCTYPE svg PUBLIC "-//W3C//DTD SVG 1.1//EN" "http://www.w3.org/Graphics/SVG/1.1/DTD/svg11.dtd">
<svg xmlns="http://www.w3.org/2000/svg" viewBox="0 0 512 512">
<path fill="#3c4c4c" d="M82 1.483C43.864 9.182 12.954 38.261 2.789 76L.5 84.5v343l2.289 8.5c9.518 35.338 37.873 63.693 73.211 73.211l8.5 2.289h343l8.5-2.289c20.17-5.433 40.864-18.768 53.536-34.5C499.85 461.906 511 436.795 511 426.371c0-1.239.45-2.531 1-2.871.66-.408 1-57.697 1-168.618 0-111.745-.335-167.793-1-167.382-.559.346-1-.427-1-1.753 0-10.539-11.092-35.581-21.464-48.458-12.465-15.475-32.79-28.694-53.036-34.494l-8-2.292-170-.166C121.649.203 87.233.427 82 1.483M.488 256c0 92.675.118 130.587.262 84.25.144-46.338.144-122.163 0-168.5C.606 125.412.488 163.325.488 256m12.512.5V325h78v-15H31V188H13v68.5m134.158-63.25c-1.093 2.887-13.05 33.504-26.572 68.036C107.064 295.818 96 324.281 96 324.536c0 .255 4.018.464 8.928.464h8.928l1.968-5.25c2.395-6.389 12.735-33.566 13.698-36 1.064-2.691 53.901-2.691 54.939 0 .371.962 4.075 10.637 8.23 21.5l7.555 19.75h18.619l-3.233-8.25a84747.897 84747.897 0 0 1-26.683-68.498L165.5 188.005l-8.178-.003-8.178-.002-1.986 5.25M237 256.5V325h17.19l-.345-58.002c-.19-31.901-.216-57.664-.059-57.25L275.82 267.5l21.746 57 7.537.289 7.537.289 21.342-55.289c11.739-30.409 21.832-56.463 22.43-57.898.796-1.907.993 12.931.733 55.25L356.79 325H375V187.942l-13.185.279-13.184.279-21.07 55.171c-11.588 30.344-21.305 55.406-21.592 55.694-.288.288-9.959-24.652-21.49-55.421L263.513 188H237v68.5m174 0V325h18v-53h13.935c21.759 0 33.796-3.458 44.011-12.642 15.762-14.171 17.126-42.885 2.76-58.076-10.365-10.959-19.645-13.241-53.956-13.265L411 188v68.5m18-26.496v27.307l13.805-.628c28.448-1.294 38.214-8.356 38.185-27.611-.027-18.064-9.563-24.666-37.24-25.781l-14.75-.595v27.308m-272.399-20.957c-.27.799-1.439 4.726-2.596 8.727-1.625 5.617-11.822 33.253-17.518 47.476-.654 1.634.704 1.75 20.406 1.75 11.609 0 21.107-.396 21.107-.879 0-.484-2.962-8.696-6.582-18.25-3.621-9.554-8.325-22.525-10.454-28.824-2.129-6.3-4.092-10.8-4.363-10" fill-rule="evenodd"/>
</svg>